<?xml version="1.0" encoding="utf-8"?>
<!-- Generator: Adobe Illustrator 15.0.0, SVG Export Plug-In . SVG Version: 6.00 Build 0)  -->
<!DOCTYPE svg PUBLIC "-//W3C//DTD SVG 1.1//EN" "http://www.w3.org/Graphics/SVG/1.1/DTD/svg11.dtd">
<svg version="1.1" id="Ebene_1" xmlns="http://www.w3.org/2000/svg" xmlns:xlink="http://www.w3.org/1999/xlink" x="0px" y="0px"
	 width="100px" height="100px" viewBox="0 0 100 100" enable-background="new 0 0 100 100" xml:space="preserve">
<g>
	<path fill-rule="evenodd" clip-rule="evenodd" fill="#009640" d="M39.5,75.604c7.396-20.215,17.391-40.799,28.585-58.042
		c1.587-2.443,3.262-5.516,5.077-7.254c2.803-2.681,6.804-3.476,11.465-3.771c2.536-0.161,5.652-0.342,6.239,1.305
		c0.611,1.72-1.609,3.998-2.466,5.224C72.834,35.3,59.914,58.425,49.658,86.052c-0.639,1.718-1.382,4.506-2.322,5.514
		c-1.773,1.899-10.177,2.842-13.495,1.016c-1.194-0.658-1.883-2.362-3.047-4.208c-5.552-8.806-11.912-16.672-18.863-24.231
		c-1.049-1.143-2.872-2.788-2.902-4.209c-0.077-3.619,8.766-6.737,13.06-5.224c2.119,0.748,3.581,2.839,5.079,4.499
		C31.706,64.232,35.479,69.92,39.5,75.604z"/>
</g>
<g display="none">
	<path display="inline" fill-rule="evenodd" clip-rule="evenodd" fill="#FF0000" d="M37.108,13.217
		c0.598,0.034,1.322,1.032,1.895,1.515c0.399-0.316,0.567-0.862,0.756-1.389c4.521,7.184,7.991,15.416,12,23.112
		c4.775-6.565,9.879-13.466,14.903-20.333c1.91-2.614,3.74-5.726,6.566-7.073c-0.178,0.327-0.174,0.835-0.378,1.138
		c0.697-0.313,1.19-0.832,1.769-1.266c0.152,0.621-0.323,1.696-0.381,2.527c1.084-0.309,2.179-1.695,3.411-2.273
		c-0.076,0.793,0.096,1.336,0.126,2.021c0.937-0.2,1.787-0.486,2.526-0.884c-0.197,0.941-1.048,2.32-1.643,3.283
		c0.835-0.259,1.985-1.299,2.905-1.894c0.202,0.46-0.397,1.198-0.506,1.769c0.296,0.162,0.992-0.354,1.265-0.631
		c-0.104,0.654-0.959,1.648-1.265,2.524c0.69-0.151,1.077-0.606,1.769-0.759C74.87,26.056,66.056,36.651,58.451,48.452
		c2.616,5.14,5.478,9.973,8.336,14.778c2.86,4.81,6.179,9.385,8.336,14.777c-0.477-0.027-0.612-0.397-1.01-0.506
		c0.072,0.602,0.38,0.969,0.378,1.643c-0.41-0.074-0.587,0.085-0.884,0.126c0.168,0.676,0.34,1.345,0.506,2.021
		c-0.627,0.108-1.803-1.388-2.652-1.896c0.268,1.08,0.531,2.166,0.759,3.283c-0.449-0.268-1.014-0.416-1.391-0.756
		c-0.268,0.656-0.508,1.345-0.631,2.146c-1.044-0.272-1.864-1.834-2.905-2.525c0.183,0.827,0.255,1.767,0.506,2.525
		c-0.195,0.365-1.071-0.668-1.39-1.01c-0.171,0.083-0.236,0.27-0.253,0.504c-0.493-0.011-0.5-0.508-0.757-0.757
		c-0.294,0.13-0.262,0.58-0.253,1.012c-2.988-3.312-5.209-7.355-7.579-11.241c-2.37-3.889-4.551-7.94-6.82-11.872
		c-5.124,7.896-9.804,16.336-14.397,25.007c-1.991,3.758-3.623,7.894-6.314,10.862c-0.281-0.353-0.31-0.954-0.38-1.517
		c-0.893,0.046-1.736,1.874-2.525,2.021c0.287-1.144,0.436-2.427,0.756-3.536c-0.937,0.325-2.212,2.08-3.156,2.399
		c0-0.549,0-1.095,0-1.643c-0.65,0.069-1.75,0.777-2.527,1.137c0.177-0.92,0.986-2.296,1.39-3.409
		c-0.933,0.54-1.774,1.173-2.525,1.894c-0.289-0.587,0.38-1.299,0.378-2.019c-0.228-0.262-0.988,0.015-1.263,0.125
		c0.002-0.884,0.91-1.951,1.263-2.905c-0.818,0.361-1.431,0.929-2.274,1.265c7.118-15.153,15.7-28.843,24.629-42.184
		c-4.858-9.373-10.011-18.45-14.272-28.418c0.455,0.049,0.846,0.164,1.263,0.253c-0.372-0.765-0.614-1.66-0.884-2.527
		c0.599-0.093,0.869,0.143,1.39,0.128c0.134-0.432-0.032-1.652-0.125-2.274c0.335-0.212,0.935,0.593,1.388,1.012
		c0.519,0.478,1.031,0.988,1.516,1.263c-0.385-1.342-0.818-2.634-1.137-4.043c0.699,0.44,1.345,0.93,2.021,1.391
		c0.291-0.34,0.045-1.219,0.128-1.769c0.322-0.193,0.945,0.567,1.388,1.009c0.497,0.496,0.918,1.104,1.39,1.391
		C37.542,14.886,37.493,13.884,37.108,13.217z"/>
</g>
</svg>
